<svg width="90" height="91" viewBox="0 0 90 91" fill="none" xmlns="http://www.w3.org/2000/svg">
<g clip-path="url(#clip0_1978_780)">
<path d="M40.4067 44.2362C41.5942 29.4632 55.8704 29.4632 55.8704 29.4632C55.8704 29.4632 69.7895 29.1779 70.9263 44.2359C71.0095 45.3374 70.1045 46.244 69 46.244H42.3283C41.2238 46.244 40.3183 45.3372 40.4067 44.2362Z" fill="#CCEEFF"/>
<path d="M40.4067 44.2362C41.5942 29.4632 55.8704 29.4632 55.8704 29.4632C55.8704 29.4632 69.7895 29.1779 70.9263 44.2359C71.0095 45.3374 70.1045 46.244 69 46.244H42.3283C41.2238 46.244 40.3183 45.3372 40.4067 44.2362Z" fill="url(#paint0_linear_1978_780)"/>
<path d="M21 84.5V35.0671C21 24.2605 29.7605 15.5 40.5672 15.5V15.5H41.9071C49.6188 15.5 55.8704 21.7515 55.8704 29.4632V29.4632M55.8704 29.4632C55.8704 29.4632 41.5942 29.4632 40.4068 44.2362C40.3183 45.3372 41.2238 46.244 42.3283 46.244H69C70.1045 46.244 71.0095 45.3374 70.9263 44.2359C69.7895 29.1779 55.8704 29.4632 55.8704 29.4632Z" stroke="#302433" stroke-width="1.5" stroke-linecap="round" stroke-linejoin="round"/>
<path d="M44.5305 54.6875V58.0621M55.8699 54.6875V58.0621M67.0875 54.6875V58.0621M40.6602 66.6261V70.0007M50.9995 66.6261V70.0007M61.2171 66.6261V70.0007M70.9995 66.6261V70.0007" stroke="#302433" stroke-width="1.5" stroke-linecap="round" stroke-linejoin="round"/>
</g>
<defs>
<linearGradient id="paint0_linear_1978_780" x1="46.5996" y1="36" x2="60.0996" y2="44.5" gradientUnits="userSpaceOnUse">
<stop stop-color="#00AAFF" stop-opacity="0"/>
<stop offset="1" stop-color="#00AAFF"/>
</linearGradient>
<clipPath id="clip0_1978_780">
<rect y="0.5" width="90" height="90" rx="45" fill="white"/>
</clipPath>
</defs>
</svg>
