<svg width="90" height="91" viewBox="0 0 90 91" fill="none" xmlns="http://www.w3.org/2000/svg">
<path d="M8.5 56.2586C8.5 63.5716 14.5261 69.5 21.3429 69.5C28.1596 69.5 33.6857 63.5716 33.6857 56.2586C33.6857 48.9456 28.1596 43.0172 21.3429 43.0172C14.5261 43.0172 8.5 48.9456 8.5 56.2586Z" fill="#CCEEFF"/>
<path d="M8.5 56.2586C8.5 63.5716 14.5261 69.5 21.3429 69.5C28.1596 69.5 33.6857 63.5716 33.6857 56.2586C33.6857 48.9456 28.1596 43.0172 21.3429 43.0172C14.5261 43.0172 8.5 48.9456 8.5 56.2586Z" fill="url(#paint0_linear_1940_1826)"/>
<path d="M56.3143 56.2586C56.3143 63.5716 61.8404 69.5 68.6571 69.5C75.4739 69.5 81.5 63.5716 81.5 56.2586C81.5 48.9456 75.4739 43.0172 68.6571 43.0172C61.8404 43.0172 56.3143 48.9456 56.3143 56.2586Z" fill="#CCEEFF"/>
<path d="M56.3143 56.2586C56.3143 63.5716 61.8404 69.5 68.6571 69.5C75.4739 69.5 81.5 63.5716 81.5 56.2586C81.5 48.9456 75.4739 43.0172 68.6571 43.0172C61.8404 43.0172 56.3143 48.9456 56.3143 56.2586Z" fill="url(#paint1_linear_1940_1826)"/>
<path d="M33.6857 56.2586C33.6857 63.5716 28.1596 69.5 21.3429 69.5C14.5261 69.5 8.5 63.5716 8.5 56.2586C8.5 48.9456 14.5261 43.0172 21.3429 43.0172C28.1596 43.0172 33.6857 48.9456 33.6857 56.2586ZM33.6857 56.2586H21.3429L33.6857 33.0862H56.3143M33.6857 56.2586H46.0286M46.0286 56.2586L29.0571 25.6379H36.7714M46.0286 56.2586L56.3143 33.0862M56.3143 33.0862L68.6571 56.2586M56.3143 33.0862L50.1429 21.5M47.0571 21.5H56.3143M56.3143 56.2586C56.3143 63.5716 61.8404 69.5 68.6571 69.5C75.4739 69.5 81.5 63.5716 81.5 56.2586C81.5 48.9456 75.4739 43.0172 68.6571 43.0172C61.8404 43.0172 56.3143 48.9456 56.3143 56.2586Z" stroke="#302433" stroke-width="1.5" stroke-linecap="round" stroke-linejoin="round"/>
<defs>
<linearGradient id="paint0_linear_1940_1826" x1="46.0286" y1="44.4565" x2="46.5579" y2="68.4562" gradientUnits="userSpaceOnUse">
<stop stop-color="#14D8DF" stop-opacity="0"/>
<stop offset="1" stop-color="#14D8DF"/>
</linearGradient>
<linearGradient id="paint1_linear_1940_1826" x1="46.0286" y1="44.4565" x2="46.5579" y2="68.4562" gradientUnits="userSpaceOnUse">
<stop stop-color="#14D8DF" stop-opacity="0"/>
<stop offset="1" stop-color="#14D8DF"/>
</linearGradient>
</defs>
</svg>
