<svg width="90" height="91" viewBox="0 0 90 91" fill="none" xmlns="http://www.w3.org/2000/svg">
<path d="M37.7211 54.5401C39.6237 55.1918 40.8975 51.5 40.8975 51.5C40.8975 51.5 39.6374 48.4155 39.0435 46.409L29.457 41.7734C29.457 41.7734 32.4976 52.7511 37.7211 54.5401Z" fill="url(#paint0_linear_1978_790)"/>
<path d="M53.7551 26.1583C53.7551 26.1583 68.7337 23.0094 74.7745 31.0665C74.7337 34.0094 64.2337 33.5094 64.2628 35.8709C64.2919 38.2323 71.8036 47.3863 69.172 64.1815C69.8058 64.8123 75.999 69.788 73.1215 77.6378C73.1215 77.6378 67.5617 78.3205 65.7155 69.788C65.7155 69.788 56.6739 74.8524 53.0817 73.2188C53.0817 73.2188 52.9697 66.4293 62.4953 62.9304C62.4953 62.9304 59.8984 57.9397 50.7301 53.8195C52.248 57.0157 52.2459 57.1996 50.3984 57.5C44.5505 57.5243 42.0164 54.7791 40.4962 50.6535C40.0281 49.3832 39.6562 47.9822 39.3133 46.4908C33.1376 43.2248 26.0367 40.4902 17.902 38.6769L17.8448 38.6684C15.0081 38.2456 8.90396 37.5914 8.77782 34.7691C8.63209 31.5084 13.8512 30.6942 16.6509 30.2771C17.5795 26.1113 22.939 21.6837 29.4205 20.629C39.8445 18.5 49.7335 23.0094 53.7551 26.1583Z" fill="#CCEEFF"/>
<path d="M53.7551 26.1583C53.7551 26.1583 68.7337 23.0094 74.7745 31.0665C74.7337 34.0094 64.2337 33.5094 64.2628 35.8709C64.2919 38.2323 71.8036 47.3863 69.172 64.1815C69.8058 64.8123 75.999 69.788 73.1215 77.6378C73.1215 77.6378 67.5617 78.3205 65.7155 69.788C65.7155 69.788 56.6739 74.8524 53.0817 73.2188C53.0817 73.2188 52.9697 66.4293 62.4953 62.9304C62.4953 62.9304 59.8984 57.9397 50.7301 53.8195C52.248 57.0157 52.2459 57.1996 50.3984 57.5C44.5505 57.5243 42.0164 54.7791 40.4962 50.6535C40.0281 49.3832 39.6562 47.9822 39.3133 46.4908C33.1376 43.2248 26.0367 40.4902 17.902 38.6769L17.8448 38.6684C15.0081 38.2456 8.90396 37.5914 8.77782 34.7691C8.63209 31.5084 13.8512 30.6942 16.6509 30.2771C17.5795 26.1113 22.939 21.6837 29.4205 20.629C39.8445 18.5 49.7335 23.0094 53.7551 26.1583Z" fill="url(#paint1_linear_1978_790)"/>
<path d="M8.77782 34.7691C8.63209 31.5084 13.8512 30.6942 16.6509 30.2771C17.5795 26.1113 22.939 21.6837 29.4205 20.629C39.8445 18.5 49.7335 23.0094 53.7551 26.1583C53.7551 26.1583 68.7337 23.0094 74.7745 31.0665C74.7337 34.0094 64.2337 33.5094 64.2628 35.8709C64.2919 38.2323 71.8036 47.3863 69.172 64.1815M8.77782 34.7691C8.90396 37.5914 15.0081 38.2456 17.8448 38.6684L17.902 38.6769C26.0367 40.4902 33.1376 43.2248 39.3133 46.4908M8.77782 34.7691C11.7976 35.2339 18.6841 35.7278 22.0713 33.9841M69.172 64.1815C69.8058 64.8123 75.999 69.788 73.1215 77.6378C73.1215 77.6378 67.5617 78.3205 65.7155 69.788C65.7155 69.788 56.6739 74.8524 53.0817 73.2188C53.0817 73.2188 52.9697 66.4293 62.4953 62.9304C62.4953 62.9304 59.8984 57.9397 50.7301 53.8195M69.172 64.1815C69.1332 64.1428 69.1125 64.1237 69.1125 64.1237M38.4677 38.8922C38.4462 40.9831 38.674 43.7107 39.3133 46.4908M48.9791 44.9833C48.4935 48.3667 49.5852 51.4087 50.7301 53.8195M29.5373 42.5238C31.2533 47.9038 35.2691 54.4859 37.7823 54.4213C40.2954 54.3568 40.826 51.9764 40.4962 50.6535M50.7301 53.8195C52.248 57.0157 52.2459 57.1996 50.3984 57.5C42.75 57.5318 40.77 52.8262 39.3133 46.4908" stroke="#302433" stroke-width="1.5" stroke-linecap="round" stroke-linejoin="round"/>
<circle cx="29.1171" cy="28.9991" r="1.52431" transform="rotate(12.5659 29.1171 28.9991)" fill="#302433"/>
<defs>
<linearGradient id="paint0_linear_1978_790" x1="37.1936" y1="43.4979" x2="34.2722" y2="56.6043" gradientUnits="userSpaceOnUse">
<stop stop-color="#CCEEFF"/>
<stop offset="1" stop-color="#0293ED"/>
</linearGradient>
<linearGradient id="paint1_linear_1978_790" x1="29.999" y1="32.5" x2="64.499" y2="80.5" gradientUnits="userSpaceOnUse">
<stop stop-color="#0293ED" stop-opacity="0"/>
<stop offset="0.793269" stop-color="#0293ED"/>
</linearGradient>
</defs>
</svg>
