<svg width="90" height="91" viewBox="0 0 90 91" fill="none" xmlns="http://www.w3.org/2000/svg">
<g clip-path="url(#clip0_1978_765)">
<path d="M20.5 73C19 68.5005 18 63.0002 18 63.0002C18 63.0002 36.0672 58.3547 52.5 56.4991C67.0629 54.8547 81.2349 55.8555 81 57.4999C80.6 60.2999 75.5 64.9999 73 66.9999L70.5 70.5L67.5 68.5L63.5 69L57 73L47 67.5L43.5 69C43.5 69 42 71.5 40 72.5C38 73.5 32 69 29 68C26 67 20.5 73 20.5 73Z" fill="#CCEEFF"/>
<path d="M20.5 73C19 68.5005 18 63.0002 18 63.0002C18 63.0002 36.0672 58.3547 52.5 56.4991C67.0629 54.8547 81.2349 55.8555 81 57.4999C80.6 60.2999 75.5 64.9999 73 66.9999L70.5 70.5L67.5 68.5L63.5 69L57 73L47 67.5L43.5 69C43.5 69 42 71.5 40 72.5C38 73.5 32 69 29 68C26 67 20.5 73 20.5 73Z" fill="url(#paint0_linear_1978_765)"/>
<path d="M28.6738 9.5L38.5 31L39.7116 49.5631" stroke="#302433" stroke-width="1.5" stroke-linecap="round" stroke-linejoin="round"/>
<path d="M40.9372 44.6564C40.9372 44.6564 41.7549 27.4865 29.4906 11.543C23 37.5 23.5 36 20.5 49.5C31.5 45.5 40.9372 44.6564 40.9372 44.6564Z" fill="#CCEEFF"/>
<path d="M40.9372 44.6564C40.9372 44.6564 41.7549 27.4865 29.4906 11.543C23 37.5 23.5 36 20.5 49.5C31.5 45.5 40.9372 44.6564 40.9372 44.6564Z" fill="url(#paint1_linear_1978_765)"/>
<path d="M40.9372 44.6564C40.9372 44.6564 41.7549 27.4865 29.4906 11.543C23 37.5 23.5 36 20.5 49.5C31.5 45.5 40.9372 44.6564 40.9372 44.6564Z" stroke="#302433" stroke-width="1.5" stroke-linecap="round" stroke-linejoin="round"/>
<path d="M43.3911 43.8402C43.3911 43.8402 46.6616 37.2993 36.4414 18.4941C46.001 29 51.501 37.5 50.7497 43.4314C47.501 42 43.3911 43.8402 43.3911 43.8402Z" fill="#CCEEFF"/>
<path d="M43.3911 43.8402C43.3911 43.8402 46.6616 37.2993 36.4414 18.4941C46.001 29 51.501 37.5 50.7497 43.4314C47.501 42 43.3911 43.8402 43.3911 43.8402Z" fill="url(#paint2_linear_1978_765)"/>
<path d="M43.3911 43.8402C43.3911 43.8402 46.6616 37.2993 36.4414 18.4941C46.001 29 51.501 37.5 50.7497 43.4314C47.501 42 43.3911 43.8402 43.3911 43.8402Z" stroke="#302433" stroke-width="1.5" stroke-linecap="round" stroke-linejoin="round"/>
<path d="M19.6795 67.5503L18.4531 62.6445L31.9438 59.7831C61.3779 53.8963 77.0488 55.4222 81.0006 57.33C79.9105 59.6466 76.6673 64.934 72.4157 67.5503M63.0139 55.6963L54.0201 48.7466C49.5233 48.3378 36.932 48.9919 22.542 54.8787L23.7684 61.0101M42.5732 49.5645L45.0261 54.4701C47.4789 53.9251 54.5104 52.9167 59.7431 53.2437" stroke="#302433" stroke-width="1.5" stroke-linecap="round" stroke-linejoin="round"/>
<path d="M23.063 70.9622C20.8819 73.9696 18.1292 73.9696 16.0009 70.9622C13.8343 68.4745 7.50113 66.4993 5.00151 73.4992C2.43155 80.6961 6.00151 85.3326 10.0015 87.9993L37.5012 96.4993C47.6678 95.3327 68.2012 92.8993 69.0012 92.4993C70.0012 91.9993 81.5012 80.9993 81.5012 80.4993C81.5012 80.0993 86.6676 71.8333 88.001 68.5C86.4266 67.8878 82.501 67.7979 78.1396 72.081C72.3297 77.7868 69.501 62 60.3462 70.9622C54.6854 78.7711 49.2545 60.5922 41.7046 71.0766C36.7553 78.0672 30.0753 61.0844 23.063 70.9622Z" fill="white" fill-opacity="0.5" stroke="#302433" stroke-width="1.5" stroke-linecap="round" stroke-linejoin="round"/>
</g>
<defs>
<linearGradient id="paint0_linear_1978_765" x1="59" y1="61.5" x2="56.2489" y2="73.8878" gradientUnits="userSpaceOnUse">
<stop stop-color="#10BAE0" stop-opacity="0"/>
<stop offset="1" stop-color="#10BAE0"/>
</linearGradient>
<linearGradient id="paint1_linear_1978_765" x1="33" y1="29" x2="31.2285" y2="49.5" gradientUnits="userSpaceOnUse">
<stop stop-color="#10BAE0" stop-opacity="0"/>
<stop offset="1" stop-color="#10BAE0"/>
</linearGradient>
<linearGradient id="paint2_linear_1978_765" x1="45.2296" y1="30.1512" x2="44.1052" y2="43.8501" gradientUnits="userSpaceOnUse">
<stop stop-color="#10BAE0" stop-opacity="0"/>
<stop offset="1" stop-color="#10BAE0"/>
</linearGradient>
<clipPath id="clip0_1978_765">
<rect y="0.5" width="90" height="90" rx="45" fill="white"/>
</clipPath>
</defs>
</svg>
