<svg width="20" height="20" viewBox="0 0 20 20" fill="none" xmlns="http://www.w3.org/2000/svg">
<path d="M10.0007 1.90039C11.7688 1.90039 13.4645 2.60277 14.7147 3.85301C15.9649 5.10325 16.6673 6.79895 16.6673 8.56706C16.6673 11.3842 14.6878 14.4542 10.7801 17.8101C10.5629 17.9968 10.2858 18.0993 9.99937 18.0991C9.71292 18.0988 9.43607 17.9958 9.21911 17.8088L8.96065 17.5845C5.22595 14.3161 3.33398 11.3212 3.33398 8.56706C3.33398 6.79895 4.03636 5.10325 5.28661 3.85301C6.53685 2.60277 8.23254 1.90039 10.0007 1.90039ZM10.0007 6.00295C9.32061 6.00295 8.66842 6.2731 8.18756 6.75396C7.70669 7.23483 7.43655 7.88702 7.43655 8.56706C7.43655 9.2471 7.70669 9.89929 8.18756 10.3802C8.66842 10.861 9.32061 11.1312 10.0007 11.1312C10.6807 11.1312 11.3329 10.861 11.8137 10.3802C12.2946 9.89929 12.5648 9.2471 12.5648 8.56706C12.5648 7.88702 12.2946 7.23483 11.8137 6.75396C11.3329 6.2731 10.6807 6.00295 10.0007 6.00295Z" fill="#3D363F"/>
</svg>
