<svg width="1280" height="414" viewBox="0 0 1280 414" fill="none" xmlns="http://www.w3.org/2000/svg">
<rect x="0.5" y="0.5" width="1279" height="413" stroke="white"/>
<g clip-path="url(#clip0_1948_1933)">
<path d="M77.49 328.05C74.52 328.05 71.8617 327.353 69.515 325.96C67.205 324.567 65.39 322.642 64.07 320.185C62.75 317.692 62.09 314.887 62.09 311.77C62.09 308.653 62.75 305.867 64.07 303.41C65.39 300.917 67.205 298.973 69.515 297.58C71.8617 296.187 74.52 295.49 77.49 295.49C80.46 295.49 83.1 296.187 85.41 297.58C87.7567 298.973 89.59 300.917 90.91 303.41C92.23 305.867 92.89 308.653 92.89 311.77C92.89 314.887 92.23 317.692 90.91 320.185C89.59 322.642 87.7567 324.567 85.41 325.96C83.1 327.353 80.46 328.05 77.49 328.05ZM77.49 321.175C79.7267 321.175 81.56 320.295 82.99 318.535C84.4567 316.775 85.19 314.52 85.19 311.77C85.19 308.983 84.475 306.728 83.045 305.005C81.615 303.245 79.7633 302.365 77.49 302.365C75.2167 302.365 73.365 303.245 71.935 305.005C70.505 306.728 69.79 308.983 69.79 311.77C69.79 314.52 70.505 316.775 71.935 318.535C73.4017 320.295 75.2533 321.175 77.49 321.175ZM114.821 328.105C111.227 328.105 108.092 327.408 105.416 326.015C102.739 324.658 100.686 322.752 99.2558 320.295C97.8625 317.802 97.1658 314.96 97.1658 311.77C97.1658 308.543 97.8625 305.702 99.2558 303.245C100.686 300.788 102.739 298.882 105.416 297.525C108.092 296.132 111.246 295.435 114.876 295.435C117.406 295.435 119.716 295.765 121.806 296.425V303.08C119.936 302.493 117.772 302.2 115.316 302.2C111.979 302.2 109.394 303.062 107.561 304.785C105.764 306.508 104.866 308.837 104.866 311.77C104.866 314.667 105.764 316.995 107.561 318.755C109.394 320.515 111.961 321.395 115.261 321.395C116.141 321.395 117.039 321.34 117.956 321.23C118.872 321.083 119.716 320.937 120.486 320.79C121.182 320.643 121.659 320.552 121.916 320.515V327.005C119.972 327.738 117.607 328.105 114.821 328.105ZM143.563 328.105C137.623 328.105 133.149 326.638 130.143 323.705C127.136 320.772 125.633 316.793 125.633 311.77C125.633 308.507 126.256 305.628 127.503 303.135C128.786 300.605 130.583 298.643 132.893 297.25C135.239 295.82 137.916 295.105 140.923 295.105C143.966 295.105 146.624 295.802 148.898 297.195C151.208 298.588 152.986 300.55 154.233 303.08C155.479 305.573 156.103 308.47 156.103 311.77V314.85H133.773C134.579 319.323 138.081 321.56 144.278 321.56C147.028 321.56 149.778 321.138 152.528 320.295V326.73C149.961 327.647 146.973 328.105 143.563 328.105ZM148.128 308.415C147.908 306.435 147.138 304.858 145.818 303.685C144.498 302.475 142.866 301.87 140.923 301.87C138.979 301.87 137.348 302.475 136.028 303.685C134.708 304.895 133.956 306.472 133.773 308.415H148.128ZM174.584 327.665C171.651 327.665 169.066 326.968 166.829 325.575C164.592 324.182 162.851 322.275 161.604 319.855C160.394 317.398 159.789 314.63 159.789 311.55C159.789 308.433 160.412 305.665 161.659 303.245C162.906 300.788 164.629 298.882 166.829 297.525C169.029 296.132 171.504 295.435 174.254 295.435C176.124 295.435 177.792 295.783 179.259 296.48C180.762 297.177 181.954 298.112 182.834 299.285V295.93H190.259V318.535C190.259 319.452 190.479 320.075 190.919 320.405C191.396 320.698 192.037 320.808 192.844 320.735V327.005C192.111 327.152 191.322 327.225 190.479 327.225C188.866 327.225 187.454 326.877 186.244 326.18C185.034 325.52 184.136 324.603 183.549 323.43C182.742 324.677 181.496 325.685 179.809 326.455C178.122 327.262 176.381 327.665 174.584 327.665ZM175.134 320.955C177.371 320.955 179.204 320.093 180.634 318.37C182.101 316.647 182.834 314.373 182.834 311.55C182.834 309.717 182.504 308.085 181.844 306.655C181.184 305.225 180.267 304.125 179.094 303.355C177.921 302.548 176.601 302.145 175.134 302.145C172.897 302.145 171.046 303.007 169.579 304.73C168.149 306.453 167.434 308.727 167.434 311.55C167.434 314.373 168.149 316.647 169.579 318.37C171.046 320.093 172.897 320.955 175.134 320.955ZM205.55 327.335H197.96V296.15H205.55V298.845C206.356 297.892 207.493 297.103 208.96 296.48C210.463 295.857 212.131 295.545 213.965 295.545C217.998 295.545 221.151 296.755 223.425 299.175C225.735 301.558 226.89 304.968 226.89 309.405V327.335H219.3V309.405C219.3 307.242 218.676 305.518 217.43 304.235C216.183 302.952 214.515 302.31 212.425 302.31C210.335 302.31 208.666 302.952 207.42 304.235C206.173 305.518 205.55 307.242 205.55 309.405V327.335ZM262.425 327.335C258.172 327.335 254.835 326.712 252.415 325.465C250.032 324.218 248.345 322.367 247.355 319.91C246.365 317.417 245.87 314.135 245.87 310.065V287.9H253.46V296.15H262.425V303.08H253.46V310.78C253.46 313.017 253.717 314.85 254.23 316.28C254.743 317.673 255.642 318.737 256.925 319.47C258.245 320.203 260.078 320.552 262.425 320.515V327.335ZM275.105 327.335H267.515V296.15H275.105V300.495C277.855 296.682 282.127 294.922 287.92 295.215V302.75C287.59 302.713 287.114 302.695 286.49 302.695C282.787 302.695 279.964 303.813 278.02 306.05C276.077 308.25 275.105 311.422 275.105 315.565V327.335ZM296.823 291.09C295.466 291.09 294.348 290.668 293.468 289.825C292.625 288.945 292.203 287.827 292.203 286.47C292.203 285.113 292.625 284.013 293.468 283.17C294.348 282.29 295.466 281.85 296.823 281.85C298.18 281.85 299.28 282.29 300.123 283.17C301.003 284.013 301.443 285.113 301.443 286.47C301.443 287.827 301.003 288.945 300.123 289.825C299.28 290.668 298.18 291.09 296.823 291.09ZM300.618 296.15V327.335H293.028V296.15H300.618ZM315.17 337.18H307.745V296.15H315.005V299.835C315.812 298.552 317.058 297.507 318.745 296.7C320.432 295.893 322.21 295.49 324.08 295.49C326.867 295.49 329.323 296.15 331.45 297.47C333.613 298.79 335.282 300.66 336.455 303.08C337.628 305.463 338.215 308.232 338.215 311.385C338.215 314.575 337.592 317.38 336.345 319.8C335.098 322.22 333.375 324.072 331.175 325.355C328.975 326.675 326.5 327.335 323.75 327.335C321.88 327.335 320.175 326.987 318.635 326.29C317.132 325.593 315.977 324.658 315.17 323.485V337.18ZM322.87 320.625C325.18 320.625 327.032 319.818 328.425 318.205C329.855 316.592 330.57 314.318 330.57 311.385C330.57 308.452 329.855 306.197 328.425 304.62C327.032 303.007 325.18 302.2 322.87 302.2C320.597 302.2 318.745 303.025 317.315 304.675C315.885 306.288 315.17 308.525 315.17 311.385C315.17 314.208 315.885 316.463 317.315 318.15C318.745 319.8 320.597 320.625 322.87 320.625ZM349.225 327.445C347.905 327.445 346.786 326.987 345.87 326.07C344.99 325.19 344.55 324.108 344.55 322.825C344.55 321.542 344.99 320.46 345.87 319.58C346.786 318.663 347.905 318.205 349.225 318.205C350.545 318.205 351.645 318.663 352.525 319.58C353.441 320.46 353.9 321.542 353.9 322.825C353.9 324.108 353.441 325.19 352.525 326.07C351.645 326.987 350.545 327.445 349.225 327.445Z" fill="white"/>
</g>
<defs>
<clipPath id="clip0_1948_1933">
<rect width="296" height="50" fill="white" transform="translate(60 281)"/>
</clipPath>
</defs>
</svg>
