<svg width="1920" height="324" viewBox="0 0 1920 324" fill="none" xmlns="http://www.w3.org/2000/svg">
<path d="M356.386 6.6489C356.936 6.69 357.416 6.27684 357.457 5.72609C357.498 5.17534 357.085 4.69554 356.534 4.65445L356.386 6.6489ZM356.46 5.65167L356.534 4.65445C348.178 4.03089 338.472 2.78578 328.457 1.73514C318.47 0.687425 308.212 -0.162297 298.862 0.026422C289.531 0.214772 280.995 1.43773 274.511 4.61227C267.964 7.81778 263.507 13.0214 262.468 21.0226L263.46 21.1514L264.452 21.2801C265.393 14.0308 269.363 9.3593 275.39 6.40854C281.481 3.42683 289.666 2.21245 298.902 2.02601C308.121 1.83995 318.276 2.678 328.248 3.72422C338.193 4.76752 347.992 6.02254 356.386 6.6489L356.46 5.65167ZM263.46 21.1514L262.468 21.0226C261.932 25.1569 263.46 30.2582 266.767 35.9893C270.088 41.7466 275.277 48.2645 282.268 55.2796C296.252 69.313 317.537 85.4271 345.814 101.521C402.374 133.713 486.997 165.876 597.364 181.142L597.501 180.152L597.638 179.161C487.505 163.927 403.128 131.841 346.803 99.7829C318.637 83.7518 297.509 67.7409 283.684 53.8679C276.771 46.9298 271.707 40.5491 268.499 34.9898C265.276 29.4044 263.999 24.7711 264.452 21.2801L263.46 21.1514ZM597.501 180.152L597.364 181.142C707.746 196.411 868.382 183.145 1038.01 170.899C1207.72 158.648 1386.49 147.409 1533.37 166.643L1533.5 165.652L1533.63 164.66C1386.51 145.395 1207.53 156.656 1037.87 168.904C868.12 181.159 707.756 194.393 597.638 179.161L597.501 180.152Z" fill="white"/>
<rect x="315" y="77.1523" width="15" height="15" rx="7.5" fill="white"/>
<rect x="297" y="66.1523" width="9" height="9" rx="4.5" fill="white"/>
<path d="M505.755 130.273C508.676 130.057 510.144 133.727 507.879 135.584L495.125 146.046C487.576 152.239 483.513 161.719 484.234 171.457L485.452 187.907C485.668 190.829 481.999 192.296 480.141 190.031L469.679 177.278C463.486 169.728 454.007 165.665 444.269 166.386L427.818 167.604C424.897 167.821 423.429 164.151 425.694 162.293L438.448 151.831C445.997 145.638 450.06 136.159 449.339 126.421L448.121 109.97C447.905 107.049 451.574 105.581 453.432 107.846L463.894 120.6C470.087 128.149 479.566 132.213 489.304 131.491L505.755 130.273Z" fill="#3D363F"/>
<path d="M670.927 171.651C672.344 170.343 674.604 171.633 674.198 173.519C672.844 179.804 674.633 186.355 678.995 191.079C680.303 192.496 679.013 194.756 677.127 194.35C670.842 192.996 664.291 194.785 659.567 199.147C658.15 200.455 655.89 199.165 656.296 197.279C657.65 190.994 655.861 184.443 651.499 179.719C650.191 178.302 651.481 176.042 653.367 176.448C659.652 177.802 666.203 176.013 670.927 171.651Z" fill="#FDF98C"/>
<path d="M0 97.5C0 97.5 399.5 346.586 959.5 204.312C1519.5 62.0382 1920 266.703 1920 266.703V353H0V97.5Z" fill="white"/>
</svg>
