<svg width="1920" height="329" viewBox="0 0 1920 329" fill="none" xmlns="http://www.w3.org/2000/svg">
<path d="M356.385 11.6489C356.935 11.69 357.415 11.2768 357.456 10.7261C357.497 10.1753 357.084 9.69554 356.533 9.65445L356.385 11.6489ZM356.459 10.6517L356.533 9.65445C348.177 9.03089 338.471 7.78578 328.456 6.73514C318.469 5.68742 308.211 4.8377 298.861 5.02642C289.53 5.21477 280.994 6.43773 274.51 9.61227C267.963 12.8178 263.506 18.0214 262.467 26.0226L263.459 26.1514L264.451 26.2801C265.392 19.0308 269.362 14.3593 275.389 11.4085C281.48 8.42683 289.665 7.21245 298.901 7.02601C308.12 6.83995 318.275 7.678 328.247 8.72422C338.192 9.76752 347.991 11.0225 356.385 11.6489L356.459 10.6517ZM263.459 26.1514L262.467 26.0226C261.931 30.1569 263.459 35.2582 266.766 40.9893C270.087 46.7466 275.276 53.2645 282.267 60.2796C296.251 74.313 317.536 90.4271 345.813 106.521C402.374 138.713 486.996 170.876 597.363 186.142L597.5 185.152L597.637 184.161C487.504 168.927 403.127 136.841 346.802 104.783C318.636 88.7518 297.508 72.7409 283.683 58.8679C276.77 51.9298 271.706 45.5491 268.498 39.9898C265.275 34.4044 263.998 29.7711 264.451 26.2801L263.459 26.1514ZM597.5 185.152L597.363 186.142C707.745 201.411 868.381 188.145 1038.01 175.899C1207.72 163.648 1386.49 152.409 1533.37 171.643L1533.5 170.652L1533.63 169.66C1386.51 150.395 1207.53 161.656 1037.87 173.904C868.119 186.159 707.755 199.393 597.637 184.161L597.5 185.152Z" fill="white"/>
<rect x="315" y="82.1523" width="15" height="15" rx="7.5" fill="white"/>
<rect x="297" y="71.1523" width="9" height="9" rx="4.5" fill="white"/>
<path d="M505.755 135.273C508.676 135.057 510.144 138.727 507.879 140.584L495.125 151.046C487.576 157.239 483.513 166.719 484.234 176.457L485.452 192.907C485.668 195.829 481.999 197.296 480.141 195.031L469.679 182.278C463.486 174.728 454.007 170.665 444.269 171.386L427.818 172.604C424.897 172.821 423.429 169.151 425.694 167.293L438.448 156.831C445.997 150.638 450.06 141.159 449.339 131.421L448.121 114.97C447.905 112.049 451.574 110.581 453.432 112.846L463.894 125.6C470.087 133.149 479.566 137.213 489.304 136.491L505.755 135.273Z" fill="#3D363F"/>
<path d="M670.927 176.651C672.344 175.343 674.604 176.633 674.198 178.519V178.519C672.844 184.804 674.633 191.355 678.995 196.079V196.079C680.303 197.496 679.013 199.756 677.127 199.35V199.35C670.842 197.996 664.291 199.785 659.567 204.147V204.147C658.15 205.455 655.89 204.165 656.296 202.279V202.279C657.65 195.994 655.861 189.443 651.499 184.719V184.719C650.191 183.302 651.481 181.042 653.367 181.448V181.448C659.652 182.802 666.203 181.013 670.927 176.651V176.651Z" fill="#FDF98C"/>
<path d="M0 255.795C0 255.795 399.5 324.295 959.5 202.295C1519.5 80.295 1920 255.795 1920 255.795V329.795H0V255.795Z" fill="white"/>
</svg>
