<svg width="24" height="24" viewBox="0 0 24 24" fill="none" xmlns="http://www.w3.org/2000/svg">
<rect width="24" height="24" rx="12" fill="#F4F4F4"/>
<path d="M18 10.666C18 15.3327 12 19.3327 12 19.3327C12 19.3327 6 15.3327 6 10.666C6 9.07472 6.63214 7.54859 7.75736 6.42337C8.88258 5.29816 10.4087 4.66602 12 4.66602C13.5913 4.66602 15.1174 5.29816 16.2426 6.42337C17.3679 7.54859 18 9.07472 18 10.666Z" stroke="#3D363F" stroke-width="1.2" stroke-linecap="round" stroke-linejoin="round"/>
<path d="M12 12.666C13.1046 12.666 14 11.7706 14 10.666C14 9.56145 13.1046 8.66602 12 8.66602C10.8954 8.66602 10 9.56145 10 10.666C10 11.7706 10.8954 12.666 12 12.666Z" stroke="#3D363F" stroke-width="1.2" stroke-linecap="round" stroke-linejoin="round"/>
</svg>
