<svg width="37" height="37" viewBox="0 0 37 37" fill="none" xmlns="http://www.w3.org/2000/svg">
<path d="M15.9918 21.0082L28 9M15.9918 21.0082L19.8126 28.6497C19.8605 28.7542 19.9374 28.8428 20.0342 28.9049C20.1309 28.967 20.2435 29 20.3584 29C20.4734 29 20.586 28.967 20.6827 28.9049C20.7795 28.8428 20.8564 28.7542 20.9043 28.6497L28 9M15.9918 21.0082L8.35028 17.1874C8.24576 17.1395 8.1572 17.0626 8.0951 16.9658C8.03301 16.8691 8 16.7565 8 16.6416C8 16.5266 8.03301 16.414 8.0951 16.3173C8.1572 16.2205 8.24576 16.1436 8.35028 16.0957L28 9" stroke="white" stroke-width="1.5" stroke-linecap="round" stroke-linejoin="round"/>
</svg>
